<?xml version="1.0" standalone="no"?>
<!DOCTYPE svg PUBLIC "-//W3C//DTD SVG 20010904//EN"
 "http://www.w3.org/TR/2001/REC-SVG-20010904/DTD/svg10.dtd">
<svg version="1.0" xmlns="http://www.w3.org/2000/svg"
 width="2205.000000pt" height="2205.000000pt" viewBox="0 0 2205.000000 2205.000000"
 preserveAspectRatio="xMidYMid meet">
<metadata>
Created by potrace 1.14, written by Peter Selinger 2001-2017
</metadata>
<g transform="translate(0.000000,2205.000000) scale(0.100000,-0.100000)"
fill="#000000" stroke="none">
<path d="M11019 22046 c-2 -2 -31 -7 -64 -10 -106 -11 -217 -30 -270 -46 -16
-5 -41 -11 -55 -14 -14 -2 -80 -22 -147 -45 -423 -142 -801 -415 -1073 -775
-135 -178 -269 -432 -340 -646 -23 -69 -43 -126 -44 -128 -2 -1 -30 33 -63 76
-66 85 -248 273 -309 318 -22 16 -48 37 -59 47 -56 52 -276 188 -400 248 -240
116 -478 186 -735 216 -133 16 -524 8 -600 -12 -8 -2 -32 -6 -52 -9 -31 -5
-76 -14 -143 -30 -55 -13 -142 -41 -290 -92 -69 -24 -294 -140 -385 -199 -69
-44 -224 -160 -261 -195 -8 -8 -40 -38 -70 -66 -184 -175 -335 -374 -444 -586
-27 -54 -53 -98 -56 -98 -3 0 -34 36 -68 79 -126 160 -316 337 -486 452 -441
299 -929 427 -1470 386 -86 -6 -105 -9 -185 -23 -19 -4 -44 -8 -55 -10 -26 -4
-43 -8 -142 -33 -117 -29 -331 -111 -448 -172 -95 -49 -296 -176 -341 -215
-12 -11 -39 -32 -60 -49 -175 -137 -384 -377 -496 -571 -18 -31 -43 -72 -55
-92 -31 -52 -109 -226 -143 -321 -46 -128 -74 -240 -100 -396 -5 -33 -12 -76
-15 -95 -10 -60 -14 -401 -5 -475 16 -138 19 -161 30 -215 64 -333 229 -698
431 -954 22 -27 39 -51 39 -55 0 -3 -27 -39 -59 -78 -33 -40 -80 -105 -106
-145 -26 -40 -56 -85 -66 -100 -34 -49 -149 -285 -151 -308 0 -3 -5 -14 -11
-25 -6 -11 -12 -24 -14 -30 -1 -5 -16 -49 -32 -97 -17 -48 -33 -98 -35 -110
-3 -13 -14 -60 -25 -106 -10 -45 -19 -83 -19 -85 0 -9 -15 -107 -19 -127 -9
-43 -11 -442 -3 -505 24 -186 52 -319 95 -449 143 -438 390 -795 753 -1088
223 -180 565 -347 842 -413 41 -10 78 -20 81 -24 4 -3 9 -89 12 -191 4 -102 8
-194 10 -205 3 -11 8 -47 12 -80 19 -167 95 -460 151 -582 7 -17 14 -34 14
-37 0 -20 108 -228 177 -341 7 -11 15 -27 19 -35 4 -8 17 -27 28 -41 12 -14
28 -37 36 -49 8 -13 37 -50 63 -82 l48 -59 -49 -137 c-42 -114 -155 -460 -168
-512 -2 -8 -19 -73 -39 -145 -19 -71 -38 -143 -41 -159 -2 -16 -7 -32 -9 -36
-2 -3 -6 -17 -9 -31 -10 -47 -15 -71 -20 -87 -3 -9 -7 -28 -10 -42 -2 -14 -16
-79 -30 -145 -14 -66 -27 -131 -30 -145 -3 -14 -9 -47 -15 -75 -5 -27 -12 -70
-16 -95 -3 -25 -8 -52 -10 -60 -2 -8 -7 -35 -10 -60 -3 -25 -8 -52 -10 -60 -2
-8 -7 -42 -10 -75 -3 -33 -7 -71 -10 -85 -8 -53 -15 -107 -20 -160 -3 -30 -7
-71 -10 -90 -2 -19 -7 -71 -10 -115 -4 -44 -8 -96 -10 -115 -26 -259 -27
-1057 0 -1325 2 -22 7 -78 10 -125 4 -47 8 -96 10 -110 2 -14 6 -50 10 -80 3
-30 8 -71 10 -90 3 -19 7 -55 10 -80 3 -25 8 -56 10 -70 2 -14 7 -49 10 -79 3
-30 8 -57 9 -60 2 -3 7 -31 11 -61 3 -30 8 -62 10 -70 2 -8 7 -31 10 -50 14
-85 59 -304 82 -400 13 -58 26 -114 29 -125 2 -11 11 -47 19 -80 9 -33 18 -71
21 -84 11 -50 115 -402 153 -516 97 -294 227 -627 337 -863 24 -52 44 -96 44
-98 0 -9 184 -372 243 -479 113 -207 402 -684 427 -705 3 -3 37 -50 74 -105
166 -242 399 -539 627 -800 119 -136 571 -593 699 -706 154 -137 304 -263 425
-359 50 -39 97 -76 105 -83 8 -7 76 -57 150 -112 536 -396 1150 -746 1765
-1005 83 -34 164 -69 180 -76 17 -7 50 -20 75 -29 25 -9 54 -21 65 -25 46 -20
311 -111 460 -158 454 -144 909 -248 1390 -317 23 -3 50 -7 62 -9 12 -3 50 -7
85 -11 35 -3 74 -8 88 -10 14 -2 52 -7 85 -10 33 -3 80 -7 105 -10 178 -17
204 -19 485 -31 264 -11 640 -7 890 11 33 2 101 7 150 10 50 3 104 8 120 10
17 2 64 7 105 11 41 3 82 8 90 9 14 3 76 10 160 20 14 2 41 6 60 9 19 3 51 8
70 10 45 7 208 34 240 40 13 3 40 8 60 11 20 3 47 8 60 11 14 3 39 7 55 10 28
5 87 18 205 45 25 6 56 13 70 15 30 6 292 72 335 85 17 5 77 23 135 40 504
148 945 321 1415 555 305 153 397 203 645 352 123 74 470 299 480 312 3 3 43
33 90 65 155 108 551 421 640 506 8 8 35 32 60 53 268 233 634 606 865 881 37
44 77 91 89 105 205 242 458 594 685 952 33 54 61 99 61 102 0 3 12 22 26 43
14 21 30 47 35 58 5 11 13 27 19 35 55 83 293 540 372 715 115 254 237 554
304 749 40 114 106 316 110 331 1 6 22 80 47 165 71 243 139 523 182 755 9 48
36 198 40 225 2 14 7 41 10 60 3 19 7 46 10 60 2 14 7 44 10 68 3 23 7 61 10
85 3 23 8 53 10 67 2 14 7 54 11 90 3 36 7 72 9 80 2 9 6 58 10 110 4 52 8
102 10 111 3 14 11 154 21 344 5 100 5 612 0 725 -8 176 -17 325 -21 350 -2
14 -7 59 -10 100 -6 82 -12 141 -21 210 -4 25 -8 56 -9 70 -9 80 -17 147 -20
160 -2 8 -7 38 -11 65 -16 130 -112 622 -148 760 -2 6 -6 24 -11 40 -85 333
-239 831 -294 950 -5 11 -26 64 -46 117 l-37 98 49 57 c26 32 50 60 53 63 18
16 113 157 152 225 52 89 115 222 151 320 19 51 64 219 71 265 3 19 8 45 10
57 14 67 21 178 21 338 0 196 -10 322 -36 434 -6 25 -12 54 -15 65 -2 10 -11
44 -20 75 -9 31 -17 63 -19 71 -6 32 -80 209 -120 290 -47 94 -161 270 -219
340 l-38 44 28 23 c16 13 33 23 37 23 26 0 280 166 377 246 19 16 91 85 161
154 276 275 464 594 574 975 14 50 28 106 31 125 3 19 7 37 9 40 2 3 6 24 9
46 4 22 8 50 11 63 13 68 20 184 20 336 0 218 -10 318 -51 495 -14 58 -27 114
-29 124 -21 89 -106 300 -171 425 -52 98 -153 259 -206 325 -116 147 -240 273
-402 407 -4 4 6 28 23 53 190 276 330 656 368 1001 15 135 7 564 -12 594 -1 4
-6 28 -9 55 -31 230 -139 516 -293 776 -106 180 -335 445 -488 566 -27 21 -55
44 -62 50 -7 6 -63 45 -125 87 -225 150 -511 273 -744 322 -195 41 -266 48
-479 49 -197 1 -287 -4 -365 -19 -13 -3 -42 -7 -65 -10 -77 -11 -273 -64 -371
-100 -208 -77 -450 -214 -631 -357 -96 -76 -268 -248 -349 -348 -63 -78 -178
-250 -209 -310 -10 -19 -19 -36 -20 -38 -2 -2 -43 23 -92 55 -126 85 -233 143
-369 201 -121 51 -283 106 -364 123 -95 20 -201 39 -262 46 -80 10 -432 10
-520 0 -87 -9 -298 -52 -368 -73 -30 -10 -59 -18 -65 -20 -44 -10 -203 -76
-310 -129 -161 -80 -314 -178 -430 -277 -11 -9 -31 -26 -45 -38 -14 -11 -58
-53 -97 -92 -47 -46 -73 -66 -73 -55 0 10 -4 25 -9 35 -6 9 -35 70 -66 135
-246 521 -707 942 -1250 1140 -125 45 -282 88 -370 101 -62 10 -97 15 -130 22
-33 7 -460 16 -466 10z"/>
</g>
</svg>
